<svg xmlns="http://www.w3.org/2000/svg" width="16" height="19" fill="none" viewBox="0 0 16 19">
    <path fill="#747987" d="M15.693 13.444c-.69-.77-1.982-1.929-1.982-5.725 0-2.884-1.945-5.192-4.569-5.758v-.774C9.142.532 8.631 0 8 0c-.63 0-1.142.532-1.142 1.188v.773c-2.624.566-4.57 2.874-4.57 5.758 0 3.796-1.29 4.955-1.98 5.725-.215.24-.31.526-.308.806.004.608.464 1.188 1.146 1.188h13.708c.682 0 1.142-.58 1.146-1.188a1.184 1.184 0 0 0-.307-.806zm-13.281.212c.758-1.038 1.586-2.758 1.59-5.916L4 7.72c0-2.296 1.79-4.157 4-4.157s4 1.861 4 4.157l-.002.021c.004 3.158.832 4.879 1.59 5.916H2.412zM8 19c1.261 0 2.285-1.063 2.285-2.375h-4.57C5.715 17.937 6.74 19 8 19z"/>
</svg>
