<svg xmlns="http://www.w3.org/2000/svg" width="18" height="18" fill="none" viewBox="0 0 18 18">
    <path fill="#747987" d="M15.75 0H2.25A2.252 2.252 0 0 0 0 2.25v10.125a2.252 2.252 0 0 0 2.25 2.25h3.375v2.953a.42.42 0 0 0 .671.338l4.391-3.291h5.063a2.252 2.252 0 0 0 2.25-2.25V2.25A2.252 2.252 0 0 0 15.75 0zm.563 12.375c0 .31-.254.563-.563.563h-5.625l-.45.337-2.363 1.772v-2.11H2.25a.564.564 0 0 1-.563-.562V2.25c0-.31.254-.563.563-.563h13.5c.31 0 .563.254.563.563v10.125zM4.5 6.187a1.124 1.124 0 1 0 0 2.25 1.124 1.124 0 1 0 0-2.25zm4.5 0a1.124 1.124 0 1 0 0 2.25 1.124 1.124 0 1 0 0-2.25zm4.5 0a1.124 1.124 0 1 0 0 2.25 1.124 1.124 0 1 0 0-2.25z"/>
</svg>
