<svg width="19" height="19" viewBox="0 0 19 19" fill="none" xmlns="http://www.w3.org/2000/svg">
<path d="M10.1539 17.4167H2.53845C2.07136 17.4167 1.69231 17.062 1.69231 16.6251V2.37502C1.69231 1.93802 2.0714 1.58337 2.53845 1.58337H10.1539C10.6218 1.58337 11 1.22951 11 0.791724C11 0.353938 10.6218 0 10.1539 0H2.53845C1.13891 0 0 1.06561 0 2.37502V16.625C0 17.9344 1.13891 19 2.53845 19H10.1539C10.6218 19 11 18.6461 11 18.2083C11 17.7706 10.6218 17.4167 10.1539 17.4167Z" fill="black"/>
<path d="M18.7776 8.94055L14.2403 4.2262C13.9478 3.92134 13.4746 3.92529 13.1851 4.23408C12.8955 4.54286 12.8985 5.04022 13.1925 5.34508L16.4351 8.71425H7.74625C7.33357 8.71425 7 9.06545 7 9.49995C7 9.93445 7.33357 10.2857 7.74625 10.2857H16.4351L13.1925 13.6549C12.8985 13.9597 12.8963 14.4571 13.1851 14.7659C13.3313 14.9214 13.5239 15 13.7164 15C13.906 15 14.0955 14.9246 14.2403 14.7737L18.7776 10.0594C18.9194 9.91165 19 9.71047 19 9.49991C19 9.28943 18.9202 9.08906 18.7776 8.94055Z" fill="black"/>
</svg>
