<svg xmlns="http://www.w3.org/2000/svg" width="18" height="18" fill="none" viewBox="0 0 18 18">
    <path fill="#767676" d="M17.876 16.484l-4.268-4.268a.417.417 0 0 0-.299-.123h-.463A7.311 7.311 0 0 0 7.312 0 7.311 7.311 0 0 0 0 7.312a7.311 7.311 0 0 0 12.093 5.533v.464c0 .113.046.219.123.3l4.268 4.267a.422.422 0 0 0 .598 0l.794-.794a.422.422 0 0 0 0-.598zM7.312 12.937a5.623 5.623 0 0 1-5.625-5.625 5.623 5.623 0 0 1 5.625-5.625 5.623 5.623 0 0 1 5.625 5.625 5.623 5.623 0 0 1-5.625 5.625z"/>
</svg>
