<svg xmlns="http://www.w3.org/2000/svg" width="16" height="16" fill="none" viewBox="0 0 16 16">
    <path fill="#AAA" d="M16 8a8 8 0 0 1-8 8 8.001 8.001 0 1 1 8-8zM8.215 2.645c-1.758 0-2.88.74-3.76 2.057-.114.17-.076.4.088.524l1.119.849a.387.387 0 0 0 .538-.068c.576-.731.97-1.155 1.848-1.155.659 0 1.474.424 1.474 1.063 0 .483-.399.731-1.05 1.096-.758.425-1.762.955-1.762 2.28v.128c0 .214.173.387.387.387h1.806a.387.387 0 0 0 .387-.387v-.043c0-.918 2.684-.956 2.684-3.44 0-1.872-1.941-3.29-3.76-3.29zm-.215 8c-.818 0-1.484.666-1.484 1.484S7.182 13.613 8 13.613s1.484-.666 1.484-1.484S8.818 10.645 8 10.645z"/>
</svg>
