<svg xmlns="http://www.w3.org/2000/svg" width="16" height="16" fill="red" viewBox="0 0 16 16">
    <path fill="#2F80ED" d="M9.25 0h6c.414 0 .75.384.75.857v5.714c0 .474-.336.858-.75.858h-6c-.414 0-.75-.384-.75-.858V.857C8.5.384 8.836 0 9.25 0zm-2.5 0h-6C.336 0 0 .384 0 .857v5.714c0 .474.336.858.75.858h6c.414 0 .75-.384.75-.858V.857C7.5.384 7.164 0 6.75 0zM0 9.429v5.714c0 .473.336.857.75.857h6c.414 0 .75-.384.75-.857V9.429c0-.474-.336-.858-.75-.858h-6c-.414 0-.75.384-.75.858zM9.25 16h6c.414 0 .75-.384.75-.857V9.429c0-.474-.336-.858-.75-.858h-6c-.414 0-.75.384-.75.858v5.714c0 .473.336.857.75.857z"/>
</svg>
