<svg xmlns="http://www.w3.org/2000/svg" width="17" height="17" fill="none" viewBox="0 0 17 17">
    <path fill="#AAA" fill-rule="evenodd" d="M1.06 0h15.177c.412 0 .745.333.745.745L17 16.239a.745.745 0 0 1-.745.745H1.06C.1 16.984 0 16.85 0 15.89V.993C.205.415.412 0 1.06 0zm1.72 9.535v.745c.001.205.168.372.373.372h9.187a.372.372 0 0 0 .373-.372v-.745a.373.373 0 0 0-.373-.373H3.153a.372.372 0 0 0-.372.373zm.001 3.307v.745c0 .188.14.187.322.186h9.237a.373.373 0 0 0 .373-.373v-.745a.373.373 0 0 0-.373-.372H3.153c-.205 0-.372.353-.372.559zm4.673-5.31H3.233a.372.372 0 0 1-.373-.373V3.12c0-.205.167-.372.373-.372h4.22c.207 0 .373.167.373.372v4.04a.372.372 0 0 1-.372.372z" clip-rule="evenodd"/>
</svg>
