<svg xmlns="http://www.w3.org/2000/svg" width="17" height="18" fill="none" viewBox="0 0 17 18">
    <path fill="#AAA" d="M14.844 1.875h-4.496C10.348.841 9.507 0 8.473 0 7.438 0 6.598.84 6.598 1.875H1.406C.63 1.875 0 2.505 0 3.281v13.313C0 17.37.63 18 1.406 18h13.438c.776 0 1.406-.63 1.406-1.406V3.28c0-.776-.63-1.406-1.406-1.406zm-6.371-.703c.39 0 .703.313.703.703 0 .39-.314.703-.703.703a.701.701 0 0 1-.703-.703c0-.39.313-.703.703-.703zm3.524 8.174L7.807 13.5a.352.352 0 0 1-.497-.003l-2.42-2.44a.352.352 0 0 1 .003-.498l.832-.827a.352.352 0 0 1 .498.003l1.347 1.36 3.106-3.082a.352.352 0 0 1 .498.003l.826.832c.138.14.135.36-.003.498z"/>
</svg>
