<svg xmlns="http://www.w3.org/2000/svg" width="19" height="15" fill="none" viewBox="0 0 19 15">
    <path fill="#AAA" d="M7.5 8.438a1.875 1.875 0 1 0 3.75 0 1.875 1.875 0 0 0-3.75 0zm6.563 0a1.875 1.875 0 1 0 3.75 0 1.875 1.875 0 0 0-3.75 0zm-11.25 1.874a1.875 1.875 0 1 0 0-3.75 1.875 1.875 0 0 0 0 3.75zm14.062.938H15c-1.035 0-1.875.84-1.875 1.875v.938c0 .517.42.937.938.937h3.75c.517 0 .937-.42.937-.938v-.937c0-1.036-.84-1.875-1.875-1.875zm-6.563 0H8.438c-1.036 0-1.876.84-1.876 1.875v.938c0 .517.42.937.938.937h3.75c.518 0 .938-.42.938-.938v-.937c0-1.036-.84-1.875-1.876-1.875zm-6.562 0H1.875C.84 11.25 0 12.09 0 13.125v.938c0 .517.42.937.938.937h3.75c.517 0 .937-.42.937-.938v-.937c0-1.036-.84-1.875-1.875-1.875zm-.938-9.375h13.126v3.75a2.79 2.79 0 0 1 1.874.732V1.453c0-.801-.63-1.453-1.406-1.453H2.344C1.568 0 .938.652.938 1.453v4.904a2.791 2.791 0 0 1 1.875-.732v-3.75z"/>
</svg>
