<svg xmlns="http://www.w3.org/2000/svg" width="16" height="16" fill="none" viewBox="0 0 16 16">
    <path fill="#AAA" d="M16 3c0 .868-.369 1.65-.96 2.196a8.026 8.026 0 0 0-4.571-3.809A3.002 3.002 0 0 1 16 3zM5.531 1.387A3.002 3.002 0 0 0 0 3c0 .868.369 1.65.96 2.196A8.026 8.026 0 0 1 5.53 1.387zm10.103 14.246a1.25 1.25 0 0 1-1.768 0l-1.316-1.315A6.98 6.98 0 0 1 8 15.998a6.973 6.973 0 0 1-4.55-1.68l-1.316 1.315a1.25 1.25 0 1 1-1.768-1.768l1.497-1.497a7 7 0 1 1 12.275 0l1.496 1.497a1.252 1.252 0 0 1 0 1.768zm-4.793-5.506l-1.716-1.25V5.084a.376.376 0 0 0-.375-.375h-1.5a.376.376 0 0 0-.375.375v4.75c0 .118.056.234.153.303l2.49 1.809a.378.378 0 0 0 .526-.081l.881-1.213a.375.375 0 0 0-.084-.525z"/>
</svg>
