<svg width="19" height="15" viewBox="0 0 19 15" fill="none" xmlns="http://www.w3.org/2000/svg">
<g clip-path="url(#clip0)">
<path d="M5.625 7.5C7.43848 7.5 8.90625 6.03223 8.90625 4.21875C8.90625 2.40527 7.43848 0.9375 5.625 0.9375C3.81152 0.9375 2.34375 2.40527 2.34375 4.21875C2.34375 6.03223 3.81152 7.5 5.625 7.5ZM7.875 8.4375H7.63184C7.02246 8.73047 6.3457 8.90625 5.625 8.90625C4.9043 8.90625 4.23047 8.73047 3.61816 8.4375H3.375C1.51172 8.4375 0 9.94922 0 11.8125V12.6562C0 13.4326 0.629883 14.0625 1.40625 14.0625H9.84375C10.6201 14.0625 11.25 13.4326 11.25 12.6562V11.8125C11.25 9.94922 9.73828 8.4375 7.875 8.4375ZM14.0625 7.5C15.6152 7.5 16.875 6.24023 16.875 4.6875C16.875 3.13477 15.6152 1.875 14.0625 1.875C12.5098 1.875 11.25 3.13477 11.25 4.6875C11.25 6.24023 12.5098 7.5 14.0625 7.5ZM15.4688 8.4375H15.3574C14.9502 8.57812 14.5195 8.67188 14.0625 8.67188C13.6055 8.67188 13.1748 8.57812 12.7676 8.4375H12.6562C12.0586 8.4375 11.5078 8.61035 11.0244 8.88867C11.7393 9.65918 12.1875 10.6816 12.1875 11.8125V12.9375C12.1875 13.002 12.1729 13.0635 12.1699 13.125H17.3438C18.1201 13.125 18.75 12.4951 18.75 11.7188C18.75 9.90527 17.2822 8.4375 15.4688 8.4375Z" fill="#AAAAAA"/>
</g>
<defs>
<clipPath id="clip0">
<rect width="18.75" height="15" fill="white"/>
</clipPath>
</defs>
</svg>
