<svg xmlns="http://www.w3.org/2000/svg" width="20" height="20" fill="none" viewBox="0 0 20 20">
    <path fill="#AAA" d="M14.371 12.881c-.18.207-.382.395-.621.534v.896c2.598.364 4.375 1.095 4.375 1.939 0 1.208-3.637 2.188-8.125 2.188-4.487 0-8.125-.98-8.125-2.188 0-.844 1.777-1.574 4.375-1.94v-.896a2.499 2.499 0 0 1-.621-.533C2.299 13.49 0 14.768 0 16.25 0 18.321 4.477 20 10 20s10-1.679 10-3.75c0-1.482-2.3-2.76-5.629-3.369zM10 5a2.5 2.5 0 1 0 0-5 2.5 2.5 0 0 0 0 5zm-2.5 7.5v3.75c0 .69.56 1.25 1.25 1.25h2.5c.69 0 1.25-.56 1.25-1.25V12.5c.69 0 1.25-.56 1.25-1.25V7.5c0-1.036-.84-1.875-1.875-1.875h-.46A3.406 3.406 0 0 1 10 5.938c-.505 0-.982-.117-1.414-.313h-.461c-1.036 0-1.875.84-1.875 1.875v3.75c0 .69.56 1.25 1.25 1.25z"/>
</svg>
