<svg width="16" height="16" viewBox="0 0 16 16" fill="none" xmlns="http://www.w3.org/2000/svg">
<g clip-path="url(#clip0)">
<path d="M6.50002 4.12505H15.5C15.775 4.12505 16 3.90005 16 3.62505V2.37505C16 2.10005 15.775 1.87505 15.5 1.87505H6.50002C6.22502 1.87505 6.00002 2.10005 6.00002 2.37505V3.62505C6.00002 3.90005 6.22502 4.12505 6.50002 4.12505ZM6.50002 9.12505H15.5C15.775 9.12505 16 8.90005 16 8.62505V7.37505C16 7.10005 15.775 6.87505 15.5 6.87505H6.50002C6.22502 6.87505 6.00002 7.10005 6.00002 7.37505V8.62505C6.00002 8.90005 6.22502 9.12505 6.50002 9.12505ZM6.50002 14.125H15.5C15.775 14.125 16 13.9 16 13.625V12.375C16 12.1 15.775 11.875 15.5 11.875H6.50002C6.22502 11.875 6.00002 12.1 6.00002 12.375V13.625C6.00002 13.9 6.22502 14.125 6.50002 14.125ZM2.00002 11.5C1.17189 11.5 0.481268 12.1719 0.481268 13C0.481268 13.8282 1.17189 14.5 2.00002 14.5C2.82814 14.5 3.50002 13.8282 3.50002 13C3.50002 12.1719 2.82814 11.5 2.00002 11.5ZM4.89064 2.1563L2.63439 4.41255L2.14689 4.90005C2.00002 5.04692 1.74377 5.04692 1.59689 4.90005L0.109393 3.4188C-0.0374817 3.27192 -0.0374817 3.03442 0.109393 2.88755L0.600018 2.39692C0.746893 2.25005 0.984393 2.25005 1.13127 2.39692L1.84064 3.08755L3.83127 1.10942C3.97814 0.962549 4.21564 0.962549 4.36252 1.10942L4.89377 1.62505C5.03752 1.77192 5.03752 2.00942 4.89064 2.1563ZM4.89064 7.1438L2.63439 9.40005L2.14377 9.89067C1.99689 10.0375 1.74064 10.0375 1.59377 9.89067L0.109393 8.4063C-0.0374817 8.25942 -0.0374817 8.02192 0.109393 7.87505L0.600018 7.38442C0.746893 7.23755 0.984393 7.23755 1.13127 7.38442L1.84064 8.07505L3.83127 6.08442C3.97814 5.93755 4.21564 5.93755 4.36252 6.08442L4.89377 6.61567C5.03752 6.75942 5.03752 6.99692 4.89064 7.1438Z" fill="#AAAAAA"/>
</g>
<defs>
<clipPath id="clip0">
<rect width="16" height="16" fill="white"/>
</clipPath>
</defs>
</svg>
