<svg width="16" height="18" viewBox="0 0 16 18" fill="none" xmlns="http://www.w3.org/2000/svg">
<g clip-path="url(#clip0)">
<path d="M7.06452 3.12637C7.03548 2.2 7.24516 1.38652 7.65806 0.765625C3.67097 0.938281 0.187097 4.17227 0 8.64473C0.603226 8.21641 1.39032 7.99395 2.29355 8.03379C4.83871 8.09687 7.13548 5.49043 7.06452 3.12637ZM13.7548 8.36582C14.3806 8.3791 15.8452 8.26289 15.6484 6.54629C15.2742 5.31113 14.6161 4.1457 13.6645 3.16621C12.7129 2.18672 11.5806 1.50937 10.3806 1.12422C8.7129 0.925 8.59355 2.42578 8.6129 3.07324C8.66129 4.63711 7.91613 6.44668 6.71935 7.67852C5.52258 8.91699 3.77419 9.69063 2.24516 9.63086C1.6129 9.61426 0.151613 9.73379 0.351613 11.457C0.725806 12.6922 1.38065 13.8543 2.33226 14.8338C3.28387 15.8133 4.4129 16.4873 5.6129 16.8725C7.28387 17.0717 7.40645 15.5742 7.3871 14.9234C7.33871 13.3596 8.08387 11.55 9.28065 10.3182C10.4806 9.08301 12.2452 8.30273 13.7548 8.36582ZM13.7065 9.96289C11.4 9.87656 8.85806 12.3004 8.93548 14.8736C8.96452 15.8 8.75484 16.6135 8.33871 17.2344C12.2419 17.065 15.8097 13.9107 15.9968 9.35195C15.3968 9.77695 14.6065 9.99277 13.7065 9.96289Z" fill="#AAAAAA"/>
</g>
<defs>
<clipPath id="clip0">
<rect width="16" height="17" fill="white" transform="translate(0 0.5)"/>
</clipPath>
</defs>
</svg>
