<svg xmlns="http://www.w3.org/2000/svg" width="19" height="14" fill="none" viewBox="0 0 19 14">
    <path fill="#AAA" d="M2.85 5.7c1.048 0 1.9-.852 1.9-1.9s-.852-1.9-1.9-1.9-1.9.852-1.9 1.9.852 1.9 1.9 1.9zm13.3 0c1.048 0 1.9-.852 1.9-1.9s-.852-1.9-1.9-1.9-1.9.852-1.9 1.9.852 1.9 1.9 1.9zm.95.95h-1.9c-.522 0-.994.21-1.339.552a4.342 4.342 0 0 1 2.23 3.248h1.959c.526 0 .95-.425.95-.95v-.95c0-1.048-.852-1.9-1.9-1.9zm-7.6 0a3.323 3.323 0 0 0 3.325-3.325A3.323 3.323 0 0 0 9.5 0a3.323 3.323 0 0 0-3.325 3.325A3.323 3.323 0 0 0 9.5 6.65zm2.28.95h-.246a4.677 4.677 0 0 1-2.034.475c-.73 0-1.413-.178-2.034-.475H7.22a3.42 3.42 0 0 0-3.42 3.42v.855c0 .787.638 1.425 1.425 1.425h8.55c.787 0 1.425-.638 1.425-1.425v-.855a3.42 3.42 0 0 0-3.42-3.42zm-6.641-.398A1.894 1.894 0 0 0 3.8 6.65H1.9c-1.048 0-1.9.852-1.9 1.9v.95c0 .525.425.95.95.95h1.956A4.353 4.353 0 0 1 5.14 7.202z"/>
</svg>
